<?xml version="1.0" encoding="utf-8"?>
<!-- Svg Vector Icons : http://www.onlinewebfonts.com/icon -->
<!DOCTYPE svg PUBLIC "-//W3C//DTD SVG 1.1//EN" "http://www.w3.org/Graphics/SVG/1.1/DTD/svg11.dtd">
<svg version="1.1" xmlns="http://www.w3.org/2000/svg" xmlns:xlink="http://www.w3.org/1999/xlink" x="0px" y="0px" viewBox="0 0 1000 1000" enable-background="new 0 0 1000 1000" xml:space="preserve">
<metadata> Svg Vector Icons : http://www.onlinewebfonts.com/icon </metadata>
<g><path d="M942.8,500.1L946,27.4L821.3,98.3C739.8,42.1,643.4,10,544,10C273.8,10,54,229.9,54,500c0,270.1,219.8,490,490,490c155.5,0,298.5-71.4,392-195.9L790.1,684.6C731.4,762.9,641.8,807.7,544,807.7c-169.7,0-307.7-138-307.7-307.7c0-169.7,138-307.7,307.7-307.7c30.3,0,59.7,5.2,87.9,13.5L535,261L942.8,500.1z"/></g>
</svg>