<?xml version="1.0" encoding="utf-8"?>
<svg viewBox="33.757 33.447 190.164 189.08" xmlns="http://www.w3.org/2000/svg" xmlns:bx="https://boxy-svg.com">
  <defs>
    <radialGradient gradientUnits="userSpaceOnUse" cx="-180.232" cy="-266.86" r="51.744" id="gradient-0" gradientTransform="matrix(1, 0, 0, 1, 0, 0)">
      <stop offset="0" style="stop-color: rgba(21, 255, 0, 1)"/>
      <stop offset="1" style="stop-color: rgba(13, 153, 0, 1)"/>
    </radialGradient>
  </defs>
  <path d="M 73.985 212.358 C 67.939 203.864 66.644 190.886 70.915 181.424 C 74.8 172.803 74.234 168.332 65.319 137.168 C 56.327 105.704 54.608 102.016 46.749 97.349 C 28.362 86.411 29.811 57.564 49.072 51.248 C 67.23 45.278 81.452 67.21 72.276 87.034 C 68.284 95.677 68.822 99.861 77.967 131.578 C 87.267 163.802 88.763 166.983 96.815 171.42 C 108.255 177.736 112.363 193.122 106.115 206.272 C 99.876 219.411 81.489 222.891 73.985 212.358 Z M 92.334 200.798 C 96.797 196.418 96.422 191.624 91.346 188.143 C 89.062 186.576 86.116 186 84.81 186.864 C 80.75 189.515 80.904 198.55 85.051 201.386 C 87.219 202.872 90.491 202.607 92.344 200.809 L 92.334 200.798 Z M 58.822 81.432 C 62.142 79.254 60.972 69.02 57.095 66.358 C 53.86 64.145 47.545 69.458 47.69 74.275 C 47.815 78.724 55.455 83.634 58.822 81.432 Z M 148.389 206.249 C 142.343 197.755 141.047 184.778 145.319 175.316 C 149.204 166.695 148.638 162.223 139.723 131.06 C 130.731 99.596 129.013 95.908 121.153 91.24 C 102.766 80.303 104.215 51.456 123.475 45.14 C 141.634 39.17 155.855 61.102 146.681 80.925 C 142.689 89.569 143.225 93.753 152.372 125.47 C 161.671 157.694 163.166 160.875 171.219 165.312 C 182.659 171.628 186.766 187.014 180.519 200.164 C 174.28 213.303 155.893 216.783 148.389 206.249 Z M 166.738 194.69 C 171.201 190.31 170.826 185.516 165.75 182.035 C 163.464 180.468 160.518 179.891 159.213 180.756 C 155.153 183.407 155.308 192.442 159.453 195.277 C 161.622 196.764 164.895 196.499 166.748 194.701 L 166.738 194.69 Z M 133.227 75.324 C 136.546 73.146 135.375 62.912 131.499 60.249 C 128.265 58.037 121.949 63.35 122.094 68.167 C 122.218 72.616 129.859 77.525 133.227 75.324 Z" style="fill: rgb(255, 255, 255);"/>
  <path d="M 77.353 220.31 C 57.902 206.63 64.878 172.077 87.095 172.077 C 94.292 172.077 94.926 170.037 104.982 158.605 C 115.04 147.172 132.17 128.328 143.705 121.482 C 146.813 126.772 149.185 140.084 149.53 141.628 C 142.112 141.628 123.139 159.089 115.096 170.867 C 107.323 182.266 105.644 187.002 106.191 196.084 C 106.691 204.497 105.415 208.888 100.989 213.833 C 93.515 222.235 83.849 224.874 77.353 220.31 Z M 92.324 200.775 C 94.388 194.321 92.085 190.379 86.24 190.379 C 80.54 190.379 77.64 195.081 79.59 201.19 C 81.489 207.137 90.386 206.837 92.324 200.775 Z M 160.289 172.365 C 160.289 172.365 163.003 165.854 173.647 129.527 C 187.468 82.539 188.129 78.747 184.166 68.87 C 175.654 47.664 192.179 26.412 209.99 35.678 C 216.649 39.135 218.925 42.42 221.852 52.85 C 225.038 64.179 224.759 66.565 219.51 72.673 C 216.228 76.488 210.912 80.925 207.687 82.539 C 203.177 84.798 198.368 97.003 186.717 135.762 C 172.871 181.828 176.544 168.228 180.288 176.572 C 189.511 197.202 177.793 182.242 160.289 172.365 Z M 208.905 58.843 C 208.85 51.928 205.5 49.289 200.057 51.871 C 197.62 53.035 195.404 55.432 195.144 57.195 C 194.328 62.658 200.297 68.156 204.74 66.046 C 207.054 64.952 208.935 61.702 208.905 58.855 L 208.905 58.843 Z" style="fill: rgb(255, 255, 255);"/>
  <path d="M -180.232 -312.79 L -128.488 -220.93 L -231.976 -220.93 L -180.232 -312.79 Z" style="stroke: rgb(0, 255, 0); fill: url(#gradient-0);" transform="matrix(0, 1, -1, 0, -93.544063, 343.391673)" bx:shape="triangle -231.976 -312.79 103.488 91.86 0.5 0 1@fa06c166" bx:origin="0.382 0.532"/>
</svg>