<?xml version="1.0" encoding="utf-8"?>
<svg viewBox="1.72 0.519 190.164 189.08" xmlns="http://www.w3.org/2000/svg">
  <path d="M 41.948 179.43 C 35.902 170.936 34.607 157.958 38.878 148.496 C 42.763 139.875 42.197 135.404 33.282 104.24 C 24.29 72.776 22.571 69.088 14.712 64.421 C -3.675 53.483 -2.226 24.636 17.035 18.32 C 35.193 12.35 49.415 34.282 40.239 54.106 C 36.247 62.749 36.785 66.933 45.93 98.65 C 55.23 130.874 56.726 134.055 64.778 138.492 C 76.218 144.808 80.326 160.194 74.078 173.344 C 67.839 186.483 49.452 189.963 41.948 179.43 Z M 60.297 167.87 C 64.76 163.49 64.385 158.696 59.309 155.215 C 57.025 153.648 54.079 153.072 52.773 153.936 C 48.713 156.587 48.867 165.622 53.014 168.458 C 55.182 169.944 58.454 169.679 60.307 167.881 L 60.297 167.87 Z M 26.785 48.504 C 30.105 46.326 28.935 36.092 25.058 33.43 C 21.823 31.217 15.508 36.53 15.653 41.347 C 15.778 45.796 23.418 50.706 26.785 48.504 Z M 120.335 92.542 C 122.076 100.348 126.378 107.658 116.189 109.249 C 105.668 110.892 111.95 113.598 107.686 98.132 C 98.989 66.585 96.976 62.98 89.116 58.312 C 70.729 47.375 72.178 18.528 91.438 12.212 C 109.597 6.242 123.818 28.174 114.644 47.997 C 110.652 56.641 113.151 60.324 120.335 92.542 Z M 101.19 42.396 C 104.509 40.218 103.338 29.984 99.462 27.321 C 96.228 25.109 89.912 30.422 90.057 35.239 C 90.181 39.688 97.822 44.597 101.19 42.396 Z" style=""/>
  <path d="M 45.316 187.382 C 25.865 173.702 32.841 139.149 55.058 139.149 C 62.255 139.149 62.889 137.109 72.945 125.677 C 83.003 114.244 100.133 95.4 111.668 88.554 C 114.776 93.844 117.148 107.156 117.493 108.7 C 110.075 108.7 91.102 126.161 83.059 137.939 C 75.286 149.338 73.607 154.074 74.154 163.156 C 74.654 171.569 73.378 175.96 68.952 180.905 C 61.478 189.307 51.812 191.946 45.316 187.382 Z M 60.287 167.847 C 62.351 161.393 60.048 157.451 54.203 157.451 C 48.503 157.451 45.603 162.153 47.553 168.262 C 49.452 174.209 58.349 173.909 60.287 167.847 Z M 147.089 106.435 C 135.019 106.597 140.269 104.438 141.61 96.599 C 149.867 48.321 156.092 45.819 152.129 35.942 C 143.617 14.736 160.142 -6.516 177.953 2.75 C 184.612 6.207 186.888 9.492 189.815 19.922 C 193.001 31.251 192.722 33.637 187.473 39.745 C 184.191 43.56 178.875 47.997 175.65 49.611 C 171.14 51.87 170.623 65.634 154.68 102.834 C 153.625 105.296 154.612 106.334 147.089 106.435 Z M 176.868 25.915 C 176.813 19 173.463 16.361 168.02 18.943 C 165.583 20.107 163.367 22.504 163.107 24.267 C 162.291 29.73 168.26 35.228 172.703 33.118 C 175.017 32.024 176.898 28.774 176.868 25.927 L 176.868 25.915 Z" style=""/>
</svg>