<?xml version="1.0" encoding="utf-8"?>
<svg viewBox="93.484 97.724 190.164 189.08" xmlns="http://www.w3.org/2000/svg">
  <defs>
    <radialGradient gradientUnits="userSpaceOnUse" cx="500" cy="500" r="446" id="gradient-0">
      <stop offset="0" style="stop-color: rgba(17, 255, 0, 1)"/>
      <stop offset="1" style="stop-color: rgba(10, 153, 0, 1)"/>
    </radialGradient>
  </defs>
  <path d="M 133.712 276.635 C 127.666 268.141 126.371 255.163 130.642 245.701 C 134.527 237.08 133.961 232.609 125.046 201.445 C 116.054 169.981 114.335 166.293 106.476 161.626 C 88.089 150.688 89.538 121.841 108.799 115.525 C 126.957 109.555 141.179 131.487 132.003 151.311 C 128.011 159.954 128.549 164.138 137.694 195.855 C 146.994 228.079 148.49 231.26 156.542 235.697 C 167.982 242.013 172.09 257.399 165.842 270.549 C 159.603 283.688 141.216 287.168 133.712 276.635 Z M 152.061 265.075 C 156.524 260.695 156.149 255.901 151.073 252.42 C 148.789 250.853 145.843 250.277 144.537 251.141 C 140.477 253.792 140.631 262.827 144.778 265.663 C 146.946 267.149 150.218 266.884 152.071 265.086 L 152.061 265.075 Z M 118.549 145.709 C 121.869 143.531 120.699 133.297 116.822 130.635 C 113.587 128.422 107.272 133.735 107.417 138.552 C 107.542 143.001 115.182 147.911 118.549 145.709 Z M 208.116 270.526 C 202.07 262.032 200.774 249.055 205.046 239.593 C 208.931 230.972 208.365 226.5 199.45 195.337 C 190.458 163.873 188.74 160.185 180.88 155.517 C 162.493 144.58 163.942 115.733 183.202 109.417 C 201.361 103.447 215.582 125.379 206.408 145.202 C 202.416 153.846 202.952 158.03 212.099 189.747 C 221.398 221.971 222.893 225.152 230.946 229.589 C 242.386 235.905 246.493 251.291 240.246 264.441 C 234.007 277.58 215.62 281.06 208.116 270.526 Z M 226.465 258.967 C 230.928 254.587 230.553 249.793 225.477 246.312 C 223.191 244.745 220.245 244.168 218.94 245.033 C 214.88 247.684 215.035 256.719 219.18 259.554 C 221.349 261.041 224.622 260.776 226.475 258.978 L 226.465 258.967 Z M 192.954 139.601 C 196.273 137.423 195.102 127.189 191.226 124.526 C 187.992 122.314 181.676 127.627 181.821 132.444 C 181.945 136.893 189.586 141.802 192.954 139.601 Z" style="fill: rgb(255, 255, 255);"/>
  <path d="M 137.08 284.587 C 117.629 270.907 124.605 236.354 146.822 236.354 C 154.019 236.354 154.653 234.314 164.709 222.882 C 174.767 211.449 191.897 192.605 203.432 185.759 C 206.54 191.049 208.912 204.361 209.257 205.905 C 201.839 205.905 182.866 223.366 174.823 235.144 C 167.05 246.543 165.371 251.279 165.918 260.361 C 166.418 268.774 165.142 273.165 160.716 278.11 C 153.242 286.512 143.576 289.151 137.08 284.587 Z M 152.051 265.052 C 154.115 258.598 151.812 254.656 145.967 254.656 C 140.267 254.656 137.367 259.358 139.317 265.467 C 141.216 271.414 150.113 271.114 152.051 265.052 Z M 220.016 236.642 C 220.016 236.642 222.73 230.131 233.374 193.804 C 247.195 146.816 247.856 143.024 243.893 133.147 C 235.381 111.941 251.906 90.689 269.717 99.955 C 276.376 103.412 278.652 106.697 281.579 117.127 C 284.765 128.456 284.486 130.842 279.237 136.95 C 275.955 140.765 270.639 145.202 267.414 146.816 C 262.904 149.075 258.095 161.28 246.444 200.039 C 232.598 246.105 236.271 232.505 240.015 240.849 C 249.238 261.479 237.52 246.519 220.016 236.642 Z M 268.632 123.12 C 268.577 116.205 265.227 113.566 259.784 116.148 C 257.347 117.312 255.131 119.709 254.871 121.472 C 254.055 126.935 260.024 132.433 264.467 130.323 C 266.781 129.229 268.662 125.979 268.632 123.132 L 268.632 123.12 Z" style="fill: rgb(255, 255, 255);"/>
  <g transform="matrix(0.099579, 0, 0, 0.096323, 172.926504, 179.064275)" style="">
    <path d="M942.8,500.1L946,27.4L821.3,98.3C739.8,42.1,643.4,10,544,10C273.8,10,54,229.9,54,500c0,270.1,219.8,490,490,490c155.5,0,298.5-71.4,392-195.9L790.1,684.6C731.4,762.9,641.8,807.7,544,807.7c-169.7,0-307.7-138-307.7-307.7c0-169.7,138-307.7,307.7-307.7c30.3,0,59.7,5.2,87.9,13.5L535,261L942.8,500.1z" style="fill: url(#gradient-0);"/>
  </g>
</svg>