<?xml version="1.0" encoding="utf-8"?>
<svg viewBox="55.373 41.695 190.164 189.08" xmlns="http://www.w3.org/2000/svg">
  <defs>
    <radialGradient gradientUnits="userSpaceOnUse" cx="131.106" cy="131.105" r="10.175" id="gradient-1" gradientTransform="matrix(1, 0, 0, 1, 53.65291, 41.175569)">
      <stop offset="0" style="stop-color: rgba(30, 255, 0, 1)"/>
      <stop offset="1" style="stop-color: rgba(18, 153, 0, 1)"/>
    </radialGradient>
    <radialGradient gradientUnits="userSpaceOnUse" cx="131.106" cy="131.105" r="10.175" id="gradient-2" gradientTransform="matrix(1, 0, 0, 1, 0, 0)">
      <stop offset="0" style="stop-color: rgba(34, 255, 0, 1)"/>
      <stop offset="1" style="stop-color: rgba(20, 153, 0, 1)"/>
    </radialGradient>
  </defs>
  <path d="M 95.601 220.606 C 89.555 212.112 88.26 199.134 92.531 189.672 C 96.416 181.051 95.85 176.58 86.935 145.416 C 77.943 113.952 76.224 110.264 68.365 105.597 C 49.978 94.659 51.427 65.812 70.688 59.496 C 88.846 53.526 103.068 75.458 93.892 95.282 C 89.9 103.925 90.438 108.109 99.583 139.826 C 108.883 172.05 110.379 175.231 118.431 179.668 C 129.871 185.984 133.979 201.37 127.731 214.52 C 121.492 227.659 103.105 231.139 95.601 220.606 Z M 113.95 209.046 C 118.413 204.666 118.038 199.872 112.962 196.391 C 110.678 194.824 107.732 194.248 106.426 195.112 C 102.366 197.763 102.52 206.798 106.667 209.634 C 108.835 211.12 112.107 210.855 113.96 209.057 L 113.95 209.046 Z M 80.438 89.68 C 83.758 87.502 82.588 77.268 78.711 74.606 C 75.476 72.393 69.161 77.706 69.306 82.523 C 69.431 86.972 77.071 91.882 80.438 89.68 Z M 170.005 214.497 C 163.959 206.003 162.663 193.026 166.935 183.564 C 170.82 174.943 170.254 170.471 161.339 139.308 C 152.347 107.844 150.629 104.156 142.769 99.488 C 124.382 88.551 125.831 59.704 145.091 53.388 C 163.25 47.418 177.471 69.35 168.297 89.173 C 164.305 97.817 164.841 102.001 173.988 133.718 C 183.287 165.942 184.782 169.123 192.835 173.56 C 204.275 179.876 208.382 195.262 202.135 208.412 C 195.896 221.551 177.509 225.031 170.005 214.497 Z M 188.354 202.938 C 192.817 198.558 192.442 193.764 187.366 190.283 C 185.08 188.716 182.134 188.139 180.829 189.004 C 176.769 191.655 176.924 200.69 181.069 203.525 C 183.238 205.012 186.511 204.747 188.364 202.949 L 188.354 202.938 Z M 154.843 83.572 C 158.162 81.394 156.991 71.16 153.115 68.497 C 149.881 66.285 143.565 71.598 143.71 76.415 C 143.834 80.864 151.475 85.773 154.843 83.572 Z" style="fill: rgb(255, 255, 255);"/>
  <path d="M 98.969 228.558 C 79.518 214.878 86.494 180.325 108.711 180.325 C 115.908 180.325 116.542 178.285 126.598 166.853 C 136.656 155.42 153.786 136.576 165.321 129.73 C 168.429 135.02 170.801 148.332 171.146 149.876 C 163.728 149.876 144.755 167.337 136.712 179.115 C 128.939 190.514 127.26 195.25 127.807 204.332 C 128.307 212.745 127.031 217.136 122.605 222.081 C 115.131 230.483 105.465 233.122 98.969 228.558 Z M 113.94 209.023 C 116.004 202.569 113.701 198.627 107.856 198.627 C 102.156 198.627 99.256 203.329 101.206 209.438 C 103.105 215.385 112.002 215.085 113.94 209.023 Z M 181.905 180.613 C 181.905 180.613 184.619 174.102 195.263 137.775 C 209.084 90.787 209.745 86.995 205.782 77.118 C 197.27 55.912 213.795 34.66 231.606 43.926 C 238.265 47.383 240.541 50.668 243.468 61.098 C 246.654 72.427 246.375 74.813 241.126 80.921 C 237.844 84.736 232.528 89.173 229.303 90.787 C 224.793 93.046 219.984 105.251 208.333 144.01 C 194.487 190.076 198.16 176.476 201.904 184.82 C 211.127 205.45 199.409 190.49 181.905 180.613 Z M 230.521 67.091 C 230.466 60.176 227.116 57.537 221.673 60.119 C 219.236 61.283 217.02 63.68 216.76 65.443 C 215.944 70.906 221.913 76.404 226.356 74.294 C 228.67 73.2 230.551 69.95 230.521 67.103 L 230.521 67.091 Z" style="fill: rgb(255, 255, 255);"/>
  <rect x="174.584" y="124.316" width="20.349" height="95.93" style="fill: url(#gradient-1); stroke: rgb(64, 255, 0);"/>
  <rect x="120.931" y="83.14" width="20.349" height="95.93" style="fill: url(#gradient-2); stroke: rgb(34, 255, 0);" transform="matrix(0, -1, 1, 0, 55.687425, 302.51362)"/>
</svg>